<?xml version="1.0" encoding="UTF-8" standalone="no"?>
<svg
   version="1.1"
   x="0px"
   y="0px"
   viewBox="0 0 50.4 63"
   enable-background="new 0 0 50.4 50.4"
   xml:space="preserve"
   id="svg140"
   sodipodi:docname="noun_28240_cc.svg"
   inkscape:export-filename="noun_28240_cc.png"
   inkscape:export-xdpi="96"
   inkscape:export-ydpi="96"
   inkscape:version="1.2.1 (9c6d41e, 2022-07-14)"
   xmlns:inkscape="http://www.inkscape.org/namespaces/inkscape"
   xmlns:sodipodi="http://sodipodi.sourceforge.net/DTD/sodipodi-0.dtd"
   xmlns="http://www.w3.org/2000/svg"
   xmlns:svg="http://www.w3.org/2000/svg"><defs
     id="defs144" /><sodipodi:namedview
     id="namedview142"
     pagecolor="#ffffff"
     bordercolor="#000000"
     borderopacity="0.25"
     inkscape:showpageshadow="2"
     inkscape:pageopacity="0.0"
     inkscape:pagecheckerboard="0"
     inkscape:deskcolor="#d1d1d1"
     showgrid="false"
     inkscape:zoom="3.7460317"
     inkscape:cx="-8.2754237"
     inkscape:cy="2.1355932"
     inkscape:window-width="1309"
     inkscape:window-height="430"
     inkscape:window-x="0"
     inkscape:window-y="38"
     inkscape:window-maximized="0"
     inkscape:current-layer="svg140" /><g
     id="g134"><path
       d="M48.107,8.546l-5.495-2.602l1.567-2.592c0.301-0.456,0.186-1.012-0.189-1.29c-0.31-0.229-0.718-0.2-1.03-0.023l0.329-0.5   c0.302-0.455,0.271-1.046-0.185-1.347c-0.457-0.299-1.018-0.115-1.317,0.341c0,0-4.739,7.298-4.74,7.299   c-1.128,1.715-1.911,6.741-3.45,9.407c-1.281,2.223-3.062,2.666-3.062,2.666H7.158c-0.966,0-1.789,0.334-2.48,1.003   c-0.696,0.672-1.038,1.469-1.038,2.388v10.081c0,0.169,0.066,0.354,0.275,0.354c0.087,0,0.235,0.029,0.382-0.235l1.602-2.644v4.236   L3.7,38.629v9.363c0,0.676,0.167,1.264,0.626,1.73c0.461,0.463,0.823,0.646,1.411,0.646c0.67,0,0.912-0.02,1.499-0.529   c0.495-0.428,0.632-1.179,0.632-1.854v-8.257l3.247-3.676v3.593l5.407,9.305c0.5,0.793,1.003,1.095,1.68,1.241   c0.559,0.122,1.14,0.03,1.675-0.341c0.511-0.354,0.667-0.825,0.667-1.607c0-0.419-0.079-0.947-0.289-1.321l-4.67-8.165l2.763-3.762   l9.174,1.763v11.545c0,0.629,0.182,1.104,0.665,1.548c0.431,0.394,0.899,0.549,1.53,0.549c0.669,0,1.067-0.164,1.528-0.627   c0.459-0.461,0.609-1.075,0.609-1.705V36.209c0,0,4.483-2.037,7.62-8.229c2.408-4.756,2.9-16.229,2.9-16.229l4.545,0.006   c0.989,0,1.845-0.012,2.191-1.245C49.328,9.755,48.726,8.855,48.107,8.546z"
       id="path132" /></g><text
     x="-2.3799117"
     y="66.654999"
     fill="#000000"
     font-size="5px"
     font-weight="bold"
     font-family="'Helvetica Neue', Helvetica, Arial-Unicode, Arial, Sans-serif"
     id="text136">Created by Luis Prado</text><text
     x="-2.3799117"
     y="71.654999"
     fill="#000000"
     font-size="5px"
     font-weight="bold"
     font-family="'Helvetica Neue', Helvetica, Arial-Unicode, Arial, Sans-serif"
     id="text138">from the Noun Project</text></svg>
